<svg width="124" height="124" viewBox="0 0 124 124" fill="none" xmlns="http://www.w3.org/2000/svg">
<g clip-path="url(#clip0_3_3693)">
<rect width="124" height="124" fill="#F7F7F7"/>
<rect x="62" y="31" width="15.5" height="15.5" fill="#7882A4"/>
<rect x="62" y="46.5" width="15.5" height="15.5" fill="#7882A4"/>
<rect x="62" y="62" width="15.5" height="15.5" fill="#7882A4"/>
<rect x="62" y="93" width="15.5" height="15.5" fill="#7882A4"/>
<rect x="15.5" y="31" width="15.5" height="15.5" fill="#7882A4"/>
<rect x="15.5" y="46.5" width="15.5" height="15.5" fill="#7882A4"/>
<rect x="15.5" y="62" width="15.5" height="15.5" fill="#7882A4"/>
<rect x="77.5" y="15.5" width="15.5" height="15.5" fill="#7882A4"/>
<rect x="77.5" y="31" width="15.5" height="15.5" fill="#7882A4"/>
<rect x="77.5" y="62" width="15.5" height="15.5" fill="#7882A4"/>
<rect x="77.5" y="77.5" width="15.5" height="15.5" fill="#7882A4"/>
<rect x="31" y="15.5" width="15.5" height="15.5" fill="#7882A4"/>
<rect x="31" y="31" width="15.5" height="15.5" fill="#7882A4"/>
<rect x="31" y="62" width="15.5" height="15.5" fill="#7882A4"/>
<rect x="31" y="77.5" width="15.5" height="15.5" fill="#7882A4"/>
<rect x="93" y="31" width="15.5" height="15.5" fill="#7882A4"/>
<rect x="93" y="46.5" width="15.5" height="15.5" fill="#7882A4"/>
<rect x="93" y="62" width="15.5" height="15.5" fill="#7882A4"/>
<rect x="46.5" y="31" width="15.5" height="15.5" fill="#7882A4"/>
<rect x="46.5" y="46.5" width="15.5" height="15.5" fill="#7882A4"/>
<rect x="46.5" y="62" width="15.5" height="15.5" fill="#7882A4"/>
<rect x="46.5" y="93" width="15.5" height="15.5" fill="#7882A4"/>
<rect width="15.5" height="15.5" fill="#393E46"/>
<rect y="108.5" width="15.5" height="15.5" fill="#393E46"/>
<rect y="15.5" width="15.5" height="15.5" fill="#393E46"/>
<rect y="93" width="15.5" height="15.5" fill="#393E46"/>
<rect x="108.5" y="15.5" width="15.5" height="15.5" fill="#393E46"/>
<rect x="108.5" y="93" width="15.5" height="15.5" fill="#393E46"/>
<rect x="108.5" width="15.5" height="15.5" fill="#393E46"/>
<rect x="108.5" y="108.5" width="15.5" height="15.5" fill="#393E46"/>
<rect width="15.5" height="15.5" fill="#71C9CE"/>
<rect x="77.5" y="15.5" width="15.5" height="15.5" fill="#71C9CE"/>
<rect x="77.5" y="31" width="15.5" height="15.5" fill="#71C9CE"/>
<rect x="46.5" y="108.5" width="15.5" height="15.5" fill="#71C9CE"/>
<rect x="108.5" width="15.5" height="15.5" fill="#71C9CE"/>
<rect x="77.5" y="77.5" width="15.5" height="15.5" fill="#71C9CE"/>
</g>
<defs>
<clipPath id="clip0_3_3693">
<rect width="124" height="124" fill="white"/>
</clipPath>
</defs>
</svg>
