<svg viewBox="0 0 28 28" fill="none" xmlns="http://www.w3.org/2000/svg">
  <g clip-path="url(#clip0_4172_1687)">
    <path
      d="M14 28C21.732 28 28 21.732 28 14C28 6.26801 21.732 0 14 0C6.26801 0 0 6.26801 0 14C0 21.732 6.26801 28 14 28Z"
      fill="#627EEA" />
    <path fill-rule="evenodd" clip-rule="evenodd"
      d="M14.4357 3.50002L14.4357 3.5V3.50005L20.9956 14.1925L14.4357 18.0013V18.0014L14.4357 18.0014L14.4357 18.0014V18.0013L7.875 14.1925L14.4357 3.50005V3.5L14.4357 3.50002ZM7.91049 14.1766L14.4357 11.263H14.4357L20.9601 14.1766L14.4357 11.2612H14.4357L7.91049 14.1766ZM14.4357 24.4956L7.875 15.414L14.4357 19.2211V19.222L21 15.414L14.4357 24.4956Z"
      fill="white" />
  </g>
  <defs>
    <clipPath id="clip0_4172_1687">
      <rect width="28" height="28" fill="white" />
    </clipPath>
  </defs>
</svg>
