<svg width="20" height="21" viewBox="0 0 20 21" fill="none" xmlns="http://www.w3.org/2000/svg">
    <path d="M18.6296 1.62088L11.2056 7.1141L12.5861 3.87677L18.6296 1.62088Z" fill="#E17726" stroke="#E17726"
          stroke-width="0.25" stroke-linecap="round" stroke-linejoin="round"/>
    <path d="M1.50488 1.62088L8.86277 7.16537L7.54835 3.87676L1.50488 1.62088Z" fill="#E27625" stroke="#E27625"
          stroke-width="0.25" stroke-linecap="round" stroke-linejoin="round"/>
    <path d="M15.9568 14.358L13.9814 17.3756L18.2111 18.5402L19.4228 14.4239L15.9568 14.358Z" fill="#E27625"
          stroke="#E27625" stroke-width="0.25" stroke-linecap="round" stroke-linejoin="round"/>
    <path d="M0.719727 14.4239L1.924 18.5402L6.14636 17.3756L4.17837 14.358L0.719727 14.4239Z" fill="#E27625"
          stroke="#E27625" stroke-width="0.25" stroke-linecap="round" stroke-linejoin="round"/>
    <path d="M5.91854 9.26005L4.74365 11.0325L8.92927 11.223L8.78977 6.71854L5.91854 9.26005Z" fill="#E27625"
          stroke="#E27625" stroke-width="0.25" stroke-linecap="round" stroke-linejoin="round"/>
    <path d="M14.2162 9.26033L11.301 6.66754L11.2056 11.2233L15.3912 11.0328L14.2162 9.26033Z" fill="#E27625"
          stroke="#E27625" stroke-width="0.25" stroke-linecap="round" stroke-linejoin="round"/>
    <path d="M6.146 17.3753L8.67937 16.1522L6.49848 14.4529L6.146 17.3753Z" fill="#E27625" stroke="#E27625"
          stroke-width="0.25" stroke-linecap="round" stroke-linejoin="round"/>
    <path d="M11.4551 16.1522L13.9811 17.3753L13.636 14.4529L11.4551 16.1522Z" fill="#E27625" stroke="#E27625"
          stroke-width="0.25" stroke-linecap="round" stroke-linejoin="round"/>
    <path d="M13.9811 17.3753L11.4551 16.1521L11.6607 17.7928L11.6386 18.4886L13.9811 17.3753Z" fill="#D5BFB2"
          stroke="#D5BFB2" stroke-width="0.25" stroke-linecap="round" stroke-linejoin="round"/>
    <path d="M6.146 17.3753L8.49583 18.4886L8.48114 17.7928L8.67937 16.1521L6.146 17.3753Z" fill="#D5BFB2"
          stroke="#D5BFB2" stroke-width="0.25" stroke-linecap="round" stroke-linejoin="round"/>
    <path d="M8.54011 13.3692L6.43994 12.754L7.92326 12.0728L8.54011 13.3692Z" fill="#233447" stroke="#233447"
          stroke-width="0.25" stroke-linecap="round" stroke-linejoin="round"/>
    <path d="M11.5947 13.3692L12.2116 12.0728L13.7022 12.754L11.5947 13.3692Z" fill="#233447" stroke="#233447"
          stroke-width="0.25" stroke-linecap="round" stroke-linejoin="round"/>
    <path d="M6.14618 17.3756L6.51336 14.358L4.17822 14.4239L6.14618 17.3756Z" fill="#CC6228" stroke="#CC6228"
          stroke-width="0.25" stroke-linecap="round" stroke-linejoin="round"/>
    <path d="M13.6216 14.358L13.9814 17.3756L15.9567 14.4239L13.6216 14.358Z" fill="#CC6228" stroke="#CC6228"
          stroke-width="0.25" stroke-linecap="round" stroke-linejoin="round"/>
    <path d="M15.3912 11.0322L11.2056 11.2227L11.5947 13.3687L12.2116 12.0723L13.7023 12.7535L15.3912 11.0322Z"
          fill="#CC6228" stroke="#CC6228" stroke-width="0.25" stroke-linecap="round" stroke-linejoin="round"/>
    <path d="M6.43993 12.7535L7.92324 12.0723L8.5401 13.3687L8.92927 11.2227L4.74365 11.0322L6.43993 12.7535Z"
          fill="#CC6228" stroke="#CC6228" stroke-width="0.25" stroke-linecap="round" stroke-linejoin="round"/>
    <path d="M4.74365 11.0322L6.49869 14.4527L6.4399 12.7535L4.74365 11.0322Z" fill="#E27525" stroke="#E27525"
          stroke-width="0.25" stroke-linecap="round" stroke-linejoin="round"/>
    <path d="M13.7023 12.7535L13.6362 14.4527L15.3913 11.0322L13.7023 12.7535Z" fill="#E27525" stroke="#E27525"
          stroke-width="0.25" stroke-linecap="round" stroke-linejoin="round"/>
    <path d="M8.92927 11.2227L8.54004 13.3687L9.03203 15.9029L9.1422 12.563L8.92927 11.2227Z" fill="#E27525"
          stroke="#E27525" stroke-width="0.25" stroke-linecap="round" stroke-linejoin="round"/>
    <path d="M11.2056 11.2227L11 12.5557L11.1028 15.9029L11.5948 13.3687L11.2056 11.2227Z" fill="#E27525"
          stroke="#E27525" stroke-width="0.25" stroke-linecap="round" stroke-linejoin="round"/>
    <path d="M11.595 13.369L11.103 15.9031L11.4555 16.1522L13.6365 14.4529L13.7025 12.7537L11.595 13.369Z"
          fill="#F5841F" stroke="#F5841F" stroke-width="0.25" stroke-linecap="round" stroke-linejoin="round"/>
    <path d="M6.43994 12.7537L6.49873 14.4529L8.67961 16.1522L9.0321 15.9031L8.54011 13.369L6.43994 12.7537Z"
          fill="#F5841F" stroke="#F5841F" stroke-width="0.25" stroke-linecap="round" stroke-linejoin="round"/>
    <path d="M11.6387 18.4889L11.6607 17.793L11.4698 17.6319H8.66473L8.48114 17.793L8.49583 18.4889L6.146 17.3755L6.96843 18.0494L8.63534 19.1993H11.4918L13.1661 18.0494L13.9811 17.3755L11.6387 18.4889Z"
          fill="#C0AC9D" stroke="#C0AC9D" stroke-width="0.25" stroke-linecap="round" stroke-linejoin="round"/>
    <path d="M11.4549 16.1521L11.1025 15.9031H9.03168L8.67924 16.1521L8.48096 17.7928L8.66455 17.6316H11.4696L11.6606 17.7928L11.4549 16.1521Z"
          fill="#161616" stroke="#161616" stroke-width="0.25" stroke-linecap="round" stroke-linejoin="round"/>
    <path d="M18.9451 7.47298L19.5693 4.44074L18.6293 1.62088L11.4551 6.93102L14.2161 9.26012L18.1153 10.3954L18.9745 9.39199L18.6 9.12095L19.1948 8.579L18.7395 8.22741L19.3343 7.77329L18.9451 7.47298Z"
          fill="#763E1A" stroke="#763E1A" stroke-width="0.25" stroke-linecap="round" stroke-linejoin="round"/>
    <path d="M0.56543 4.44074L1.19694 7.47298L0.793071 7.77329L1.39521 8.22741L0.939933 8.579L1.53473 9.12095L1.16023 9.39199L2.01938 10.3954L5.91864 9.26012L8.67964 6.93102L1.50536 1.62088L0.56543 4.44074Z"
          fill="#763E1A" stroke="#763E1A" stroke-width="0.25" stroke-linecap="round" stroke-linejoin="round"/>
    <path d="M18.1156 10.3956L14.2163 9.26031L15.3913 11.0328L13.6362 14.4532L15.9567 14.4239H19.4227L18.1156 10.3956Z"
          fill="#F5841F" stroke="#F5841F" stroke-width="0.25" stroke-linecap="round" stroke-linejoin="round"/>
    <path d="M5.91868 9.26031L2.01947 10.3956L0.719727 14.4239H4.17837L6.49879 14.4532L4.74379 11.0328L5.91868 9.26031Z"
          fill="#F5841F" stroke="#F5841F" stroke-width="0.25" stroke-linecap="round" stroke-linejoin="round"/>
    <path d="M11.2057 11.223L11.4554 6.93095L12.5862 3.87674H7.54883L8.67966 6.93095L8.92933 11.223L9.0248 12.5707L9.03215 15.9033H11.1029L11.1103 12.5707L11.2057 11.223Z"
          fill="#F5841F" stroke="#F5841F" stroke-width="0.25" stroke-linecap="round" stroke-linejoin="round"/>
</svg>
