<svg width="20" height="21" viewBox="0 0 20 21" fill="none" xmlns="http://www.w3.org/2000/svg">
    <path d="M4.09338 6.78329C7.35413 3.59075 12.6409 3.59075 15.9016 6.78329L16.294 7.16752C16.4571 7.32715 16.4571 7.58596 16.294 7.74558L14.9516 9.05995C14.8701 9.13976 14.7379 9.13976 14.6564 9.05995L14.1163 8.53121C11.8416 6.30401 8.15342 6.30401 5.87864 8.53121L5.3003 9.09745C5.21878 9.17726 5.08661 9.17726 5.0051 9.09745L3.66265 7.78308C3.49961 7.62345 3.49961 7.36465 3.66265 7.20502L4.09338 6.78329ZM18.6779 9.50154L19.8727 10.6713C20.0357 10.831 20.0357 11.0898 19.8727 11.2494L14.4853 16.5241C14.3223 16.6838 14.058 16.6838 13.8949 16.5241C13.8949 16.5241 13.8949 16.5241 13.8949 16.5241L10.0713 12.7805C10.0306 12.7406 9.96448 12.7406 9.92372 12.7805C9.92372 12.7805 9.92372 12.7805 9.92372 12.7805L6.10019 16.5241C5.93715 16.6838 5.67282 16.6838 5.50978 16.5241C5.50978 16.5241 5.50977 16.5241 5.50977 16.5241L0.122278 11.2493C-0.0407593 11.0897 -0.0407593 10.8309 0.122278 10.6713L1.31706 9.50148C1.4801 9.34185 1.74443 9.34185 1.90747 9.50148L5.73114 13.2452C5.7719 13.2851 5.83798 13.2851 5.87874 13.2452C5.87874 13.2452 5.87874 13.2452 5.87874 13.2452L9.70222 9.50148C9.86525 9.34185 10.1296 9.34184 10.2926 9.50146C10.2926 9.50147 10.2926 9.50147 10.2926 9.50147L14.1163 13.2452C14.1571 13.2851 14.2231 13.2851 14.2639 13.2452L18.0875 9.50154C18.2505 9.34192 18.5149 9.34192 18.6779 9.50154Z"
          fill="#3B99FC"/>
</svg>
